<svg xmlns="http://www.w3.org/2000/svg" xmlns:xlink="http://www.w3.org/1999/xlink" id="Calque_2_00000142890128208581693140000016612066150198680743_" x="0px" y="0px" width="1080px" height="1080px" viewBox="0 0 1080 1080" style="enable-background:new 0 0 1080 1080;" xml:space="preserve"><path style="fill:#87E191;" d="M352.7,57c8.1,0,14.2,6.1,14.2,14.2v75.6c0,9-7.2,16.9-16.2,17.7c-38.4,3.4-73.1,5.1-106.2,5.1 c-28.4,0-56.1-1.3-82.3-3.8c-8.8-0.8-16.2-9.1-16.2-18V72.2c0-7.9,6-14,14-14c0.5,0,1.1,0,1.6,0.1c26.4,2.5,54.3,3.8,82.9,3.8 c33.3,0,68.2-1.7,106.7-5.1C351.7,57,352.2,57,352.7,57 M352.7,54c-0.6,0-1.1,0-1.7,0.1c-35.5,3.2-71,5.1-106.5,5.1 c-27.5,0-55.1-1.2-82.6-3.8c-0.6-0.1-1.2-0.1-1.9-0.1c-9.6,0-17,7.1-17,17v75.6c0,10.4,8.5,19.9,18.9,20.9 c27.5,2.6,55.1,3.8,82.6,3.8c35.5,0,71-1.9,106.5-5.1c10.4-0.9,18.9-10.2,18.9-20.7V71.2C369.9,61.3,362.3,54,352.7,54L352.7,54 L352.7,54z"></path><path style="fill:#87E191;" d="M467,380.8v3c7.7,0,13.2,5.6,13.2,13.4v529.3c0,9-7.3,17.4-16.3,18.6c-28.2,4-53,7.1-75.5,9.6 c-0.6,0.1-1.2,0.1-1.8,0.1c-7.9,0-13.8-6-13.8-14v-75.6c0-5.5-2.1-10.7-5.9-14.4c-3.8-3.7-8.8-5.8-14.3-5.8c-0.6,0-1.3,0-2,0.1 c-26.8,2.4-51.5,3.9-75.4,4.6c-0.2,0-0.3,0-0.5,0c-4.1,0-8-1.6-10.9-4.5c-2.9-2.9-4.5-6.8-4.5-11V645.1c0-8.7,7.2-16,16-16.3 c24.1-0.7,48.9-2.2,75.8-4.6c11.9-1.1,21.6-11.7,21.6-23.7v-189c0-8.9,7.3-16.9,16.2-17.9c22.6-2.5,47.4-5.6,75.7-9.6 c0.8-0.1,1.5-0.2,2.2-0.2L467,380.8 M467,380.8c-0.9,0-1.8,0.1-2.7,0.2c-25.2,3.5-50.4,6.8-75.6,9.6c-10.4,1.2-18.9,10.5-18.9,20.9 v189.1c0,10.4-8.5,19.8-18.9,20.7c-25.2,2.2-50.4,3.8-75.6,4.6c-10.4,0.3-18.9,8.9-18.9,19.3v189c0,10.2,8.2,18.5,18.3,18.5 c0.2,0,0.4,0,0.6,0c25.2-0.8,50.4-2.4,75.6-4.6c0.6,0,1.1-0.1,1.7-0.1c9.6,0,17.2,7.3,17.2,17.2v75.6c0,9.7,7.4,17,16.8,17 c0.7,0,1.4,0,2.1-0.1c25.2-2.8,50.4-6.1,75.6-9.6c10.4-1.5,18.9-11.2,18.9-21.6V397.2C483.3,387.6,476.2,380.8,467,380.8L467,380.8 L467,380.8z"></path><path style="fill:#87E191;" d="M43.5,377.9L43.5,377.9c1.4,0,2.8,0.2,4.2,0.6c24.5,6.5,50.1,11.7,75.9,15.5 c9,1.3,16.3,9.6,16.3,18.5v529.3c0,3.8-1.4,7.3-3.8,9.8c-2.4,2.5-5.8,3.8-9.4,3.8c-0.7,0-1.5-0.1-2.3-0.2c-25.7-3.8-51-9-75.3-15.4 c-9-2.4-16.7-12.2-16.7-21.3V389.2c0-3.4,1.1-6.3,3.1-8.3C37.6,378.9,40.3,377.9,43.5,377.9 M43.5,374.9c-8,0-13.9,5.6-13.9,14.3 v529.3c0,10.4,8.5,21.5,18.9,24.2c25.2,6.7,50.4,11.8,75.6,15.5c0.9,0.1,1.8,0.2,2.7,0.2c9.2,0,16.2-7.1,16.2-16.6V412.5 c0-10.5-8.5-19.9-18.9-21.4c-25.2-3.7-50.4-8.8-75.6-15.5C46.7,375.1,45,374.9,43.5,374.9L43.5,374.9L43.5,374.9z"></path><path style="fill:#87E191;" d="M352.7,280.8v3c8.1,0,14.2,6.1,14.2,14.2v75.6c0,9-7.2,16.9-16.2,17.7c-38.4,3.4-73.1,5-106.2,5 c-28.4,0-56.1-1.3-82.3-3.8c-8.8-0.8-16.2-9.1-16.2-18V299c0-8,6-14,14-14c0.5,0,1.1,0,1.6,0.1c26.4,2.5,54.3,3.8,82.9,3.8 c33.3,0,68.2-1.7,106.7-5.1c0.5,0,1-0.1,1.5-0.1L352.7,280.8 M352.7,280.8c-0.6,0-1.1,0-1.7,0.1c-35.5,3.1-71,5.1-106.5,5.1 c-27.5,0-55.1-1.1-82.6-3.8c-0.6-0.1-1.2-0.1-1.9-0.1c-9.6,0-17,7.1-17,17v75.6c0,10.4,8.5,20,18.9,21c27.5,2.6,55.1,3.8,82.6,3.8 c35.5,0,71-1.9,106.5-5.1c10.4-0.9,18.9-10.2,18.9-20.7V298C369.9,288.2,362.3,280.8,352.7,280.8L352.7,280.8L352.7,280.8z"></path><path style="fill:#87E191;" d="M835.5,3c28.4,0,56.1,1.3,82.3,3.8c8.8,0.8,16.2,9.1,16.2,18v75.6c0,7.9-6,13.9-14,13.9 c-0.5,0-1,0-1.6-0.1c-26.4-2.5-54.2-3.8-82.9-3.8c-33.3,0-68.2,1.7-106.7,5.1c-0.5,0-1,0.1-1.5,0.1c-3.9,0-7.5-1.4-10.1-4 c-2.6-2.6-4.1-6.2-4.1-10.2V25.8c0-9,7.2-16.9,16.2-17.7C767.7,4.7,802.4,3,835.5,3L835.5,3 M835.5,0C800,0,764.5,1.9,729,5.1 c-10.4,0.9-18.9,10.2-18.9,20.7v75.6c0,9.9,7.5,17.2,17.2,17.2c0.6,0,1.1,0,1.7-0.1c35.5-3.2,71-5.1,106.5-5.1 c27.5,0,55.1,1.2,82.6,3.8c0.6,0.1,1.2,0.1,1.9,0.1c9.6,0,17-7.1,17-17V24.7c0-10.4-8.5-20-18.9-21C890.6,1.1,863,0,835.5,0L835.5,0 z"></path><path style="fill:#87E191;" d="M693.3,352c3.8,0,7.3,1.4,9.8,4c2.6,2.6,4,6.2,4,10v529.3c0,8.9-7.3,16.9-16.2,17.9 c-22.6,2.5-47.4,5.7-75.7,9.6c-0.8,0.1-1.5,0.2-2.2,0.2c-7.7,0-13.2-5.6-13.2-13.4V380.4c0-9,7.3-17.4,16.3-18.6 c28.2-4,53-7.1,75.5-9.6C692.2,352.1,692.8,352,693.3,352 M693.3,349c-0.7,0-1.4,0-2.1,0.1c-25.2,2.8-50.4,6.1-75.6,9.6 c-10.4,1.5-18.9,11.2-18.9,21.6v529.3c0,9.5,7.1,16.4,16.2,16.4c0.9,0,1.8-0.1,2.7-0.2c25.2-3.5,50.4-6.8,75.6-9.6 c10.4-1.2,18.9-10.5,18.9-20.9V366C710.1,356.3,702.8,349,693.3,349L693.3,349L693.3,349z"></path><path style="fill:#87E191;" d="M835.5,229.9c28.4,0,56.1,1.3,82.3,3.8c8.8,0.8,16.2,9.1,16.2,18v75.6c0,8-6,14-14,14 c-0.5,0-1,0-1.6-0.1c-26.4-2.5-54.3-3.8-82.9-3.8c-33.3,0-68.2,1.7-106.7,5.1c-0.5,0-1,0.1-1.5,0.1c-3.9,0-7.5-1.4-10.1-4 c-2.6-2.6-4.1-6.2-4.1-10.2v-75.6c0-9,7.2-16.9,16.2-17.7C767.7,231.5,802.4,229.9,835.5,229.9 M835.5,226.9 c-35.5,0-71,1.9-106.5,5.1c-10.4,0.9-18.9,10.2-18.9,20.7v75.6c0,9.9,7.5,17.2,17.2,17.2c0.6,0,1.1,0,1.7-0.1 c35.5-3.1,71-5.1,106.5-5.1c27.5,0,55.1,1.1,82.6,3.8c0.6,0.1,1.2,0.1,1.9,0.1c9.6,0,17-7.1,17-17v-75.6c0-10.4-8.5-20-18.9-20.9 C890.6,228,863,226.8,835.5,226.9L835.5,226.9L835.5,226.9z"></path><path style="fill:#87E191;" d="M953.2,348.5v3l0,0c0.7,0,1.5,0.1,2.3,0.2c25.7,3.8,51,9,75.3,15.4c9,2.4,16.7,12.1,16.7,21.3v529.3 c0,6.8-4.3,11.3-10.9,11.3c-1.4,0-2.8-0.2-4.2-0.6c-24.5-6.5-50-11.7-76-15.5c-9-1.3-16.3-9.6-16.3-18.5v-75.6 c0-12.1-9.7-22.8-21.6-23.9c-24.2-2.3-49.8-3.6-75.9-3.8c-8.8-0.1-15.9-7.2-15.9-15.9v-189c0-8.8,7.1-16,15.8-16h0.1 c25.9,0.2,51.3,1.5,75.4,3.8c0.7,0.1,1.4,0.1,2.2,0.1c11.4,0,20-8.6,20-20V365c0-7.7,5.7-13.6,13.2-13.6L953.2,348.5 M953.2,348.5 c-9.2,0-16.2,7.1-16.2,16.6v189c0,9.8-7.5,17-17,17c-0.6,0-1.2,0-1.9-0.1c-25.2-2.4-50.4-3.6-75.6-3.8c0,0-0.1,0-0.1,0 c-10.4,0-18.8,8.6-18.8,19v189c0,10.4,8.5,18.8,18.9,18.9c25.2,0.2,50.4,1.3,75.6,3.8c10.4,1,18.9,10.5,18.9,21v75.6 c0,10.5,8.5,19.9,18.9,21.4c25.2,3.7,50.4,8.8,75.6,15.5c1.7,0.5,3.4,0.7,5,0.7c8,0,13.9-5.6,13.9-14.3V388.3 c0-10.4-8.5-21.5-18.9-24.2c-25.2-6.7-50.4-11.8-75.6-15.5C955,348.5,954.1,348.4,953.2,348.5L953.2,348.5L953.2,348.5z"></path><path style="fill:#87E191;" d="M352.6,964.4c8.1,0,14.2,6.1,14.2,14.2v75.6c0,9-7.2,16.9-16.2,17.7c-38.4,3.4-73.1,5.1-106.2,5.1 c-28.4,0-56.1-1.3-82.3-3.8c-8.8-0.8-16.2-9.1-16.2-18v-75.6c0-8,6-14,14-14c0.5,0,1.1,0,1.6,0.1c26.4,2.5,54.3,3.8,82.9,3.8 c33.3,0,68.2-1.7,106.7-5.1C351.7,964.5,352.2,964.4,352.6,964.4L352.6,964.4 M352.7,961.4c-0.6,0-1.1,0-1.7,0.1 c-35.5,3.2-71,5.1-106.5,5.1c-27.5,0-55.1-1.2-82.6-3.8c-0.6-0.1-1.2-0.1-1.9-0.1c-9.6,0-17,7.1-17,17v75.6 c0,10.4,8.5,19.9,18.9,20.9c27.5,2.6,55.1,3.8,82.6,3.8c35.5,0,71-1.9,106.5-5.1c10.4-0.9,18.9-10.3,18.9-20.7v-75.6 C369.9,968.8,362.3,961.5,352.7,961.4L352.7,961.4L352.7,961.4z"></path><path style="fill:#87E191;" d="M835.5,907.5v3c28.4,0,56.1,1.3,82.3,3.8c8.8,0.8,16.2,9.1,16.2,18v75.6c0,8-6,14-14,14 c-0.5,0-1,0-1.6-0.1c-26.4-2.5-54.3-3.8-82.9-3.8c-33.3,0-68.2,1.7-106.7,5.1c-0.5,0-1,0.1-1.4,0.1c-3.9,0-7.5-1.4-10.1-4 c-2.6-2.6-4.1-6.2-4.1-10.2v-75.6c0-9,7.2-16.9,16.2-17.7c38.4-3.4,73.1-5,106.2-5L835.5,907.5 M835.6,907.4 c-35.5,0-71,1.9-106.5,5.1c-10.4,0.9-18.9,10.2-18.9,20.7v75.6c0,9.9,7.6,17.2,17.2,17.2c0.6,0,1.1,0,1.7-0.1 c35.5-3.2,71-5.1,106.5-5.1c27.5,0,55.1,1.2,82.6,3.8c0.6,0.1,1.2,0.1,1.9,0.1c9.6,0,17-7.1,17-17v-75.6c0-10.4-8.5-20-18.9-21 C890.6,908.6,863.1,907.4,835.6,907.4L835.6,907.4L835.6,907.4z"></path></svg>