<svg xmlns="http://www.w3.org/2000/svg" xmlns:xlink="http://www.w3.org/1999/xlink" id="Calque_2_00000109003303154743645710000006551191522098604948_" x="0px" y="0px" width="1080px" height="1080px" viewBox="0 0 1080 1080" style="enable-background:new 0 0 1080 1080;" xml:space="preserve"><path style="fill:#87E191;" d="M972.2,461.3c0.8,0,1.6,0.1,2.4,0.2c26.8,4,53.4,9.4,78.7,16.1c9.5,2.5,17.5,12.8,17.5,22.4v79.1 c0,7.2-4.5,11.9-11.5,11.9c-1.4,0-2.9-0.2-4.5-0.6c-25.6-6.8-52.3-12.2-79.4-16.2c-9.5-1.4-17.2-10.1-17.2-19.5v-79.1 C958.3,467.4,964.3,461.3,972.2,461.3 M972.2,458.3c-9.6,0-16.9,7.4-16.9,17.3v79.1c0,10.9,8.8,20.8,19.8,22.4 c26.4,3.9,52.7,9.2,79.1,16.2c1.8,0.5,3.6,0.7,5.2,0.7c8.4,0,14.5-5.8,14.5-14.9V500c0-10.9-8.8-22.4-19.8-25.3 c-26.4-7-52.7-12.3-79.1-16.2C974.1,458.3,973.1,458.3,972.2,458.3L972.2,458.3L972.2,458.3z"></path><path style="fill:#87E191;" d="M856.2,96.9h0.1c27.1,0.2,53.7,1.5,78.8,3.9c9.2,0.9,17.1,9.6,17.1,18.9v79.1 c0,8.4-6.4,14.7-14.8,14.7c-0.5,0-1.1,0-1.7-0.1c-25.4-2.4-52-3.8-79.3-3.9c-9.3-0.1-16.8-7.6-16.8-16.7v-79.1 c0-4.5,1.7-8.7,4.9-11.9C847.7,98.6,851.8,96.9,856.2,96.9 M856.3,93.9c-10.9,0-19.6,8.9-19.6,19.8c0,26.4,0,52.7,0,79.1 c0,10.9,8.8,19.6,19.8,19.7c26.4,0.2,52.7,1.4,79.1,3.9c0.7,0.1,1.3,0.1,2,0.1c10,0,17.8-7.5,17.8-17.7v-79.1 c0-10.9-8.8-20.9-19.8-21.9c-26.4-2.5-52.7-3.7-79.1-3.9C856.4,93.9,856.3,93.9,856.3,93.9L856.3,93.9L856.3,93.9z"></path><path style="fill:#87E191;" d="M856.2,808.7h0.1c27.1,0.2,53.7,1.5,78.8,3.9c9.2,0.9,17.1,9.5,17.1,18.9v79.1 c0,8.4-6.4,14.7-14.8,14.7c-0.5,0-1.1,0-1.7-0.1c-25.4-2.4-52-3.8-79.3-4c-9.3-0.1-16.8-7.6-16.8-16.7v-79.1c0-4.5,1.7-8.7,4.9-11.9 S851.8,808.7,856.2,808.7 M856.3,805.7c-10.9,0-19.6,9-19.6,19.8c0,26.4,0,52.7,0,79.1c0,10.9,8.8,19.6,19.8,19.7 c26.4,0.2,52.7,1.4,79.1,3.9c0.7,0.1,1.3,0.1,2,0.1c10,0,17.8-7.5,17.8-17.7v-79.1c0-10.9-8.8-20.9-19.8-21.9 c-26.4-2.5-52.7-3.7-79.1-3.9C856.4,805.7,856.3,805.7,856.3,805.7L856.3,805.7L856.3,805.7z"></path><path style="fill:#87E191;" d="M700.4,224.6c8.3,0,14.6,6.4,14.6,14.8v79.1c0,5.8,2.2,11.1,6.1,15c3.9,3.9,9.2,6,14.9,6 c0.7,0,1.4,0,2-0.1c28-2.5,53.8-4,78.9-4.8c0.2,0,0.3,0,0.5,0c4.3,0,8.4,1.7,11.5,4.8s4.7,7.2,4.7,11.6v316.4 c0,9.2-7.6,16.9-16.9,17.2c-25.2,0.8-51.1,2.3-79.2,4.8c-12.4,1.1-22.5,12.2-22.5,24.6V793c0,9.4-7.7,17.8-17.1,18.9 c-28.7,3.2-60.1,7.3-99,12.9c-19.8,2.9-39.9,5.9-59.3,8.8s-39.5,5.9-59.3,8.8c-38.8,5.6-70.2,9.7-98.8,12.8 c-0.6,0.1-1.2,0.1-1.9,0.1c-4,0-7.7-1.5-10.4-4.2c-2.7-2.7-4.2-6.5-4.2-10.6v-79.1c0-11.8-9.2-21-21-21c-0.7,0-1.4,0-2.1,0.1 c-28,2.5-53.9,4-78.9,4.8c-0.2,0-0.3,0-0.5,0c-4.3,0-8.4-1.7-11.4-4.8c-3.1-3.1-4.7-7.2-4.7-11.6V412.6c0-9.2,7.6-16.9,16.9-17.2 c25.2-0.8,51.1-2.3,79.3-4.8c12.4-1.1,22.5-12.1,22.5-24.6v-79.1c0-9.4,7.7-17.8,17.1-18.9c28.6-3.2,60.1-7.3,99-12.9 c19.8-2.9,39.9-5.9,59.3-8.8c19.4-2.9,39.5-5.9,59.3-8.8c38.8-5.6,70.2-9.7,98.8-12.9C699.2,224.6,699.8,224.6,700.4,224.6  M700.4,221.6c-0.7,0-1.4,0-2.2,0.1c-33,3.6-65.9,8.1-98.9,12.9c-39.5,5.7-79.1,11.9-118.6,17.6c-33,4.8-65.9,9.2-98.9,12.9 c-10.9,1.2-19.8,10.9-19.8,21.9V366c0,10.9-8.9,20.7-19.8,21.6c-26.4,2.3-52.7,4-79.1,4.8c-10.9,0.3-19.8,9.3-19.8,20.2V729 c0,10.7,8.5,19.4,19.2,19.4c0.2,0,0.4,0,0.6,0c26.4-0.8,52.7-2.5,79.1-4.8c0.6,0,1.2-0.1,1.8-0.1c10.1,0,18,7.7,18,18v79.1 c0,10.2,7.7,17.8,17.6,17.8c0.7,0,1.4,0,2.2-0.1c33-3.7,65.9-8.1,98.9-12.9c39.6-5.7,79.1-11.9,118.6-17.6 c33-4.8,65.9-9.2,98.9-12.9c10.9-1.2,19.8-10.9,19.8-21.9V714c0-10.9,8.8-20.7,19.8-21.6c26.4-2.3,52.7-4,79.1-4.8 c10.9-0.3,19.8-9.3,19.8-20.2c0-33,0-65.9,0-98.9c0-39.6,0-79.1,0-118.7c0-32.9,0-65.9,0-98.8c0-10.7-8.5-19.4-19.2-19.4 c-0.2,0-0.4,0-0.6,0c-26.4,0.8-52.7,2.5-79.1,4.8c-0.6,0-1.2,0.1-1.8,0.1c-10.1,0-18-7.7-18-18v-79.1 C718,229.2,710.3,221.6,700.4,221.6L700.4,221.6L700.4,221.6z"></path><path style="fill:#87E191;" d="M582.5,3c8,0,13.9,5.9,13.9,14.1v79.1c0,9.5-7.7,18.3-17.2,19.7c-13.2,1.9-26.6,4-39.6,5.9 c-13,1.9-26.4,3.9-39.5,5.9c-0.8,0.1-1.7,0.2-2.5,0.2c-3.8,0-7.4-1.4-9.9-3.9c-2.6-2.6-4-6.2-4-10.2V34.7c0-9.5,7.7-18.3,17.2-19.7 c13.2-1.9,26.6-4,39.6-5.9c13-1.9,26.4-3.9,39.5-5.9C580.8,3.1,581.6,3,582.5,3 M582.4,0c-1,0-1.9,0.1-2.9,0.2 c-26.4,3.9-52.7,7.9-79.1,11.8c-10.9,1.6-19.8,11.7-19.8,22.7v79.1c0,9.9,7.3,17.1,16.9,17.1c1,0,1.9-0.1,2.9-0.2 c26.4-3.9,52.7-7.9,79.1-11.8c10.9-1.6,19.8-11.7,19.8-22.7V17.1C599.3,7.2,592,0,582.4,0L582.4,0L582.4,0z"></path><path style="fill:#87E191;" d="M582.5,952.1c8,0,13.9,5.9,13.9,14.1v79.1c0,9.5-7.7,18.3-17.2,19.7c-13.2,1.9-26.6,4-39.5,5.9 c-13,1.9-26.4,3.9-39.5,5.9c-0.8,0.1-1.7,0.2-2.5,0.2c-3.8,0-7.4-1.4-9.9-3.9c-2.6-2.6-4-6.2-4-10.2v-79.1c0-9.5,7.7-18.3,17.2-19.7 c13.2-2,26.6-4,39.5-5.9c13-1.9,26.4-4,39.5-5.9C580.8,952.1,581.6,952.1,582.5,952.1 M582.4,949.1c-1,0-1.9,0.1-2.9,0.2 c-26.4,3.9-52.7,7.9-79.1,11.8c-10.9,1.6-19.8,11.7-19.8,22.7v79.1c0,9.9,7.3,17.1,16.9,17.1c1,0,1.9-0.1,2.9-0.2 c26.4-3.9,52.7-7.9,79.1-11.8c10.9-1.6,19.8-11.7,19.8-22.7v-79.1C599.3,956.3,592,949.1,582.4,949.1L582.4,949.1L582.4,949.1z"></path><path style="fill:#87E191;" d="M142.6,154.6c0.6,0,1.1,0,1.7,0.1c25.4,2.4,52.1,3.8,79.4,3.9c9.3,0.1,16.8,7.6,16.8,16.7v79.1 c0,9.3-7.5,16.8-16.6,16.8h-0.1c-27.1-0.2-53.7-1.5-78.9-3.9c-9.2-0.9-17.1-9.5-17.1-18.9v-79.1c0-4.1,1.5-7.9,4.3-10.6 C134.7,156.1,138.5,154.6,142.6,154.6 M142.6,151.6c-10,0-17.8,7.5-17.8,17.7v79.1c0,10.9,8.8,20.9,19.8,21.9 c26.4,2.5,52.8,3.8,79.1,3.9c0.1,0,0.1,0,0.1,0c10.9,0,19.6-9,19.6-19.8v-79.1c0-10.9-8.9-19.6-19.8-19.7 c-26.4-0.2-52.8-1.4-79.1-3.9C143.9,151.7,143.2,151.6,142.6,151.6L142.6,151.6L142.6,151.6z"></path><path style="fill:#87E191;" d="M142.6,866.4c0.6,0,1.1,0,1.7,0.1c25.4,2.4,52.1,3.8,79.4,4c9.3,0.1,16.8,7.6,16.8,16.7v79.1 c0,9.3-7.5,16.8-16.6,16.8h-0.1c-27.1-0.2-53.7-1.5-78.9-3.9c-9.2-0.9-17.1-9.5-17.1-18.9v-79.1c0-4.1,1.5-7.9,4.3-10.6 C134.7,867.9,138.5,866.4,142.6,866.4 M142.6,863.4c-10,0-17.8,7.5-17.8,17.7v79.1c0,10.9,8.8,20.9,19.8,21.9 c26.4,2.5,52.8,3.8,79.1,3.9c0.1,0,0.1,0,0.1,0c10.9,0,19.6-9,19.6-19.8v-79.1c0-10.9-8.9-19.6-19.8-19.7 c-26.4-0.2-52.8-1.4-79.1-3.9C143.9,863.5,143.2,863.4,142.6,863.4L142.6,863.4L142.6,863.4z"></path><path style="fill:#87E191;" d="M20.7,488.9c1.4,0,2.9,0.2,4.5,0.6c25.6,6.8,52.3,12.2,79.4,16.2c9.5,1.4,17.2,10.1,17.2,19.4v79.1 c0,8.2-6,14.3-13.9,14.3c-0.8,0-1.6-0.1-2.4-0.2c-26.8-4-53.3-9.4-78.7-16.1c-9.5-2.5-17.5-12.8-17.5-22.4v-79.1 c0-3.6,1.1-6.6,3.2-8.8C14.4,490,17.3,488.9,20.7,488.9 M20.7,485.9c-8.4,0-14.5,5.8-14.5,14.9V580c0,10.9,8.9,22.4,19.8,25.3 c26.4,7,52.7,12.3,79.1,16.2c1,0.1,1.9,0.2,2.8,0.2c9.6,0,16.9-7.4,16.9-17.3v-79.1c0-10.9-8.8-20.8-19.8-22.4 c-26.4-3.9-52.7-9.2-79.1-16.2C24.1,486.2,22.3,485.9,20.7,485.9L20.7,485.9L20.7,485.9z"></path></svg>