<svg xmlns="http://www.w3.org/2000/svg" xmlns:xlink="http://www.w3.org/1999/xlink" id="Calque_2_00000017485417311790754260000010718596562124056199_" x="0px" y="0px" width="1080px" height="1080px" viewBox="0 0 1080 1080" style="enable-background:new 0 0 1080 1080;" xml:space="preserve"><path style="fill:#87E191;" d="M805.5,0v3c20.6,0,40.7,0.8,59.9,2.5c8.9,0.8,16.4,9,16.4,18.1v191.6c0,4-1.5,7.6-4.2,10.3 c-2.7,2.6-6.3,4-10.3,4c-0.5,0-1,0-1.4-0.1c-19.4-1.6-39.7-2.5-60.4-2.5c-5.4,0-11,0.1-16.5,0.2c-12.2,0.2-22.1,10.4-22.1,22.8v76.7 c0,8.9-7.3,16.6-16.3,17.2c-23.9,1.5-49.1,3.9-76.8,7.4c-12,1.5-21.8,12.6-21.8,24.6v76.6c0,11.3,8.5,19.8,19.7,19.8 c0.9,0,1.9-0.1,2.8-0.2c35-4.4,66.2-7.1,95.5-8.4c12-0.5,24-0.8,35.5-0.8c27.3,0,53.9,1.5,79,4.4c32.9,3.8,65,10.3,95.3,19.3 c9.2,2.7,17,13,17,22.4v76.6c0,6.7-4.1,11-10.5,11c-1.5,0-3.2-0.2-4.8-0.7c-24.8-7.3-50.7-13-77.1-17c-1.1-0.2-2.1-0.2-3.2-0.2 c-11.1,0-19.4,8.5-19.4,19.8v76.6c0,4-1.5,7.6-4.2,10.3c-2.7,2.6-6.3,4-10.3,4c-0.5,0-1,0-1.4-0.1c-19.4-1.7-39.7-2.5-60.4-2.5 c-5.4,0-11,0.1-16.5,0.2c-12.2,0.2-22.1,10.5-22.1,22.8v76.7c0,8.9-7.3,16.6-16.3,17.2c-23.9,1.5-49.1,3.9-76.8,7.4 c-12,1.5-21.8,12.6-21.8,24.7V912c0,9.1-7.4,17.6-16.6,18.9c-26.2,3.8-52.3,8.2-76.7,12.2c-11.9,2-21.7,13.4-21.7,25.3v76.6 c0,9.2-7.5,17.9-16.7,19.4c-24.3,4.1-50.4,8.4-76.6,12.2c-0.8,0.1-1.6,0.2-2.4,0.2c-3.7,0-7.1-1.4-9.5-3.8c-2.5-2.5-3.8-6-3.8-9.8 V756.8c0-11.3-8.5-19.8-19.7-19.8c-0.9,0-1.9,0.1-2.8,0.2c-35,4.4-66.2,7.1-95.5,8.4c-12,0.5-23.9,0.8-35.4,0.8 c-27.4,0-54-1.5-79-4.4c-32.9-3.8-64.9-10.3-95.3-19.3c-9.2-2.7-17-13-17-22.3v-76.6c0-3.4,1-6.2,2.9-8.1c1.9-1.9,4.5-2.9,7.6-2.9 c1.5,0,3.2,0.2,4.8,0.7c24.8,7.3,50.7,13,77,17c1.1,0.2,2.1,0.2,3.2,0.2c11.1,0,19.4-8.5,19.4-19.8V304.3c0-4,1.5-7.6,4.2-10.3 c2.7-2.6,6.3-4,10.3-4c0.5,0,1,0,1.4,0.1c19.4,1.6,39.7,2.5,60.5,2.5c5.4,0,10.9-0.1,16.4-0.2c12.2-0.2,22.1-10.5,22.1-22.8V78.1 c0-8.9,7.3-16.6,16.3-17.2c29.1-1.8,60.5-5.1,96-9.9c38.4-5.3,77.3-11.8,115-18.2c37.6-6.4,76.6-12.9,114.8-18.2 C698.3,8.8,735.8,5.2,770,3.8c12-0.5,24-0.8,35.5-0.8L805.5,0 M805.5,0c-11.9,0-23.7,0.3-35.6,0.8c-38.3,1.6-76.6,5.7-115,10.9 c-38.3,5.2-76.6,11.7-114.9,18.2c-38.3,6.5-76.6,12.9-115,18.2c-31.9,4.4-63.9,7.9-95.8,9.9c-10.6,0.7-19.2,9.6-19.2,20.2v191.6 c0,10.6-8.6,19.5-19.2,19.8c-5.5,0.1-10.9,0.2-16.4,0.2c-20.1,0-40.1-0.8-60.2-2.5c-0.6,0-1.1-0.1-1.7-0.1 c-9.8,0-17.5,7.3-17.5,17.3v306.5c0,9.6-7.1,16.8-16.4,16.8c-0.9,0-1.8-0.1-2.8-0.2c-25.5-3.8-51.1-9.3-76.6-16.9 c-2-0.6-3.9-0.9-5.7-0.9c-7.8,0-13.5,5.3-13.5,14v76.6c0,10.6,8.6,22.1,19.2,25.2c31.9,9.5,63.8,15.7,95.8,19.4 c26.5,3.1,52.9,4.4,79.4,4.4c11.9,0,23.7-0.3,35.5-0.8c31.9-1.3,63.9-4.4,95.8-8.4c0.8-0.1,1.6-0.2,2.4-0.2c9.4,0,16.7,7,16.7,16.8 v306.5c0,9.6,7.1,16.6,16.4,16.6c0.9,0,1.8-0.1,2.8-0.2c25.5-3.8,51.1-7.9,76.6-12.2c10.6-1.8,19.2-11.8,19.2-22.4v-76.6 c0-10.6,8.6-20.6,19.2-22.4c25.5-4.3,51.1-8.5,76.6-12.2c10.6-1.6,19.2-11.3,19.2-21.9v-76.6c0-10.6,8.6-20.3,19.2-21.7 c25.5-3.2,51.1-5.8,76.6-7.4c10.6-0.7,19.2-9.6,19.2-20.2v-76.7c0-10.6,8.6-19.5,19.2-19.8c5.5-0.1,10.9-0.2,16.4-0.2 c20.1,0,40.1,0.8,60.2,2.5c0.6,0,1.1,0.1,1.7,0.1c9.8,0,17.5-7.3,17.5-17.3v-76.6c0-9.6,7.1-16.8,16.4-16.8c0.9,0,1.8,0.1,2.8,0.2 c25.5,3.8,51.1,9.3,76.7,16.9c2,0.6,3.9,0.9,5.7,0.9c7.8,0,13.5-5.3,13.5-14v-76.6c0-10.6-8.6-22.1-19.2-25.2 c-31.9-9.5-63.9-15.7-95.8-19.4c-26.5-3.1-52.9-4.4-79.3-4.4c-11.9,0-23.7,0.3-35.6,0.8c-31.9,1.4-63.9,4.4-95.8,8.4 c-0.8,0.1-1.6,0.1-2.4,0.1c-9.4,0-16.7-7-16.7-16.8v-76.6c0-10.6,8.6-20.4,19.2-21.7c25.5-3.2,51.1-5.8,76.6-7.4 c10.6-0.7,19.2-9.6,19.2-20.2v-76.7c0-10.6,8.6-19.6,19.2-19.8c5.5-0.1,10.9-0.2,16.4-0.2c20.1,0,40.1,0.8,60.2,2.5 c0.6,0.1,1.1,0.1,1.7,0.1c9.8,0,17.5-7.3,17.5-17.3V23.6c0-10.6-8.6-20.2-19.2-21.1C845.6,0.8,825.5,0,805.5,0L805.5,0L805.5,0z"></path></svg>