<svg xmlns="http://www.w3.org/2000/svg" xmlns:xlink="http://www.w3.org/1999/xlink" id="Calque_2_00000172409911705203372760000004508091200838883493_" x="0px" y="0px" width="1080px" height="1080px" viewBox="0 0 1080 1080" style="enable-background:new 0 0 1080 1080;" xml:space="preserve"><path style="fill:#87E191;" d="M805.5,3c8.5,0,15.3,7,15.3,15.5v75.7c0,12,9.8,21.8,21.9,21.9c25.9,0.2,51.3,1.4,75.4,3.8 c8.8,0.8,16.2,9.1,16.2,18v75.7c0,11.9,9.4,22.6,21.5,24.4c25.7,3.8,51,9,75.4,15.4c9.1,2.4,16.7,12.2,16.7,21.3v529.8 c0,3.4-1.1,6.3-3.1,8.3c-1.9,2-4.7,3-7.8,3c-1.4,0-2.8-0.2-4.2-0.6c-24.5-6.5-50.1-11.7-76-15.5c-9-1.3-16.4-9.6-16.4-18.5V591.9 c0-12.1-9.7-22.8-21.6-24c-24.3-2.3-49.8-3.6-75.9-3.8c-8.8-0.1-15.9-7.2-15.9-15.9v-75.7c0-5.8-2.2-11.2-6.2-15.2 c-4-4.1-9.4-6.3-15.1-6.3c-0.2,0-0.4,0-0.7,0c-24.1,0.7-49,2.2-75.9,4.6c-0.5,0-1,0.1-1.5,0.1c-8.1,0-14.2-6.1-14.2-14.2v-75.7 c0-11.2-8.7-20-19.8-20c-0.8,0-1.6,0-2.4,0.1c-22.7,2.5-47.5,5.7-75.8,9.6c-0.8,0.1-1.5,0.2-2.2,0.2c-7.7,0-13.3-5.6-13.3-13.4 v-75.7c0-9,7.3-17.4,16.3-18.6c28.3-4,53-7.1,75.6-9.6c11.9-1.3,21.6-12,21.6-23.9v-75.7c0-11.2-8.7-20-19.8-20 c-0.8,0-1.6,0.1-2.4,0.1c-22.7,2.5-47.5,5.7-75.8,9.6c-11.9,1.7-21.5,12.7-21.5,24.6v75.7c0,9-7.3,17.4-16.4,18.7 c-12.6,1.9-25.5,3.8-37.9,5.6c-12.4,1.9-25.2,3.8-37.8,5.6c-0.8,0.1-1.6,0.2-2.3,0.2c-7.6,0-13.1-5.6-13.1-13.4v-75.7 c0-11.1-8.3-19.4-19.3-19.4c-1,0-2,0.1-3.1,0.2c-36.4,5.1-66.4,8.8-94.5,11.6c-34.1,3.4-65,5.5-94.4,6.4c-0.2,0-0.3,0-0.5,0 c-8.5,0-15.4-7-15.4-15.5V77.5c0-8.7,7.2-16,16-16.3c29.6-0.9,60.6-3,94.9-6.4c32.8-3.3,67.8-7.7,113.7-14.3 c18.9-2.7,38.2-5.6,56.8-8.4c18.6-2.8,37.8-5.7,56.7-8.4c45.8-6.6,80.7-11,113.4-14.3c34.1-3.4,65-5.5,94.4-6.4 C805.1,3,805.3,3,805.5,3 M805.5,0c-0.2,0-0.4,0-0.6,0c-31.5,0.9-63.1,3.2-94.7,6.4c-37.8,3.8-75.7,8.8-113.5,14.3 S521.1,32,483.2,37.5S407.5,48,369.7,51.8c-31.5,3.2-63.1,5.5-94.6,6.4c-10.5,0.3-18.9,8.9-18.9,19.3v75.7 c0,10.3,8.2,18.5,18.4,18.5c0.2,0,0.4,0,0.6,0c31.5-0.9,63.1-3.2,94.6-6.4c31.5-3.2,63.1-7.2,94.6-11.6c0.9-0.1,1.8-0.2,2.7-0.2 c9.2,0,16.3,6.9,16.3,16.4v75.7c0,9.5,7,16.4,16.1,16.4c0.9,0,1.8-0.1,2.8-0.2c25.2-3.7,50.4-7.6,75.7-11.3 c10.5-1.5,18.9-11.2,18.9-21.7v-75.7c0-10.4,8.5-20.1,18.9-21.6c25.2-3.5,50.5-6.8,75.7-9.6c0.7-0.1,1.4-0.1,2.1-0.1 c9.5,0,16.8,7.3,16.8,17c0,25.2,0,50.4,0,75.7c0,10.4-8.5,19.8-18.9,20.9c-25.2,2.8-50.5,6.1-75.7,9.6 c-10.5,1.5-18.9,11.2-18.9,21.6v75.7c0,9.5,7.1,16.4,16.3,16.4c0.9,0,1.8-0.1,2.7-0.2c25.2-3.5,50.5-6.8,75.7-9.6 c0.7-0.1,1.4-0.1,2.1-0.1c9.5,0,16.8,7.3,16.8,17c0,25.2,0,50.5,0,75.7c0,9.9,7.6,17.2,17.2,17.2c0.6,0,1.1,0,1.7-0.1 c25.2-2.2,50.5-3.9,75.7-4.6c0.2,0,0.4,0,0.6,0c10.2,0,18.3,8.3,18.3,18.5c0,25.2,0,50.4,0,75.7c0,10.5,8.5,18.8,18.9,18.9 c25.2,0.2,50.4,1.3,75.7,3.8c10.5,1,18.9,10.5,18.9,21v189.2c0,10.5,8.5,19.9,18.9,21.5c25.2,3.7,50.5,8.8,75.7,15.5 c1.7,0.5,3.4,0.7,5,0.7c8,0,13.9-5.6,13.9-14.3V274.6c0-10.4-8.5-21.5-18.9-24.2c-25.2-6.7-50.5-11.8-75.7-15.5 c-10.5-1.5-18.9-11-18.9-21.4v-75.7c0-10.4-8.5-20-18.9-21c-25.2-2.4-50.4-3.6-75.7-3.8c-10.5-0.1-18.9-8.4-18.9-18.9 c0-25.2,0-50.5,0-75.7C823.8,8.3,815.7,0,805.5,0L805.5,0L805.5,0z"></path><path style="fill:#87E191;" d="M842.6,797.2h0.1c25.9,0.2,51.3,1.5,75.4,3.8c8.8,0.8,16.2,9.1,16.2,18v75.7c0,8-6,14-14.1,14 c-0.5,0-1,0-1.6-0.1c-24.3-2.3-49.8-3.6-75.9-3.8c-8.8-0.1-15.9-7.2-15.9-15.9v-75.7C826.9,804.4,833.9,797.2,842.6,797.2  M842.6,794.2c-10.4,0-18.8,8.6-18.8,19c0,25.2,0,50.5,0,75.7c0,10.5,8.5,18.8,18.9,18.9c25.2,0.2,50.4,1.3,75.7,3.8 c0.6,0.1,1.2,0.1,1.9,0.1c9.6,0,17.1-7.1,17.1-17c0-25.2,0-50.5,0-75.7c0-10.5-8.5-20-18.9-21c-25.2-2.4-50.4-3.6-75.7-3.8 C842.7,794.2,842.7,794.2,842.6,794.2L842.6,794.2L842.6,794.2z"></path><path style="fill:#87E191;" d="M805.5,911.2c8.5,0,15.3,7,15.3,15.5v75.7c0,8.7-7.2,16-16,16.3c-29.6,0.9-60.6,3-94.9,6.4 c-32.8,3.3-67.8,7.7-113.7,14.3c-18.9,2.7-38.2,5.6-56.8,8.4c-18.6,2.8-37.8,5.7-56.7,8.4c-45.8,6.6-80.7,11-113.4,14.3 c-34.1,3.4-65,5.5-94.4,6.4c-0.2,0-0.3,0-0.5,0c-8.5,0-15.4-7-15.4-15.5v-75.7c0-8.7,7.2-16,16-16.3c29.6-0.9,60.6-3,94.9-6.4 c32.8-3.3,67.8-7.7,113.7-14.3c18.9-2.7,38.2-5.6,56.8-8.4c18.6-2.8,37.8-5.7,56.8-8.4c45.8-6.6,80.7-11,113.4-14.3 c34.1-3.4,65-5.5,94.4-6.4C805.2,911.2,805.3,911.2,805.5,911.2 M805.5,908.2c-0.2,0-0.4,0-0.6,0c-31.5,0.9-63.1,3.2-94.7,6.4 c-37.8,3.8-75.7,8.8-113.5,14.3s-75.7,11.3-113.5,16.8c-37.8,5.5-75.7,10.5-113.5,14.3c-31.5,3.2-63.1,5.5-94.6,6.4 c-10.5,0.3-18.9,8.9-18.9,19.3v75.7c0,10.3,8.2,18.5,18.4,18.5c0.2,0,0.4,0,0.6,0c31.5-0.9,63.1-3.2,94.6-6.4 c37.8-3.8,75.7-8.8,113.5-14.3c37.8-5.5,75.7-11.3,113.5-16.8c37.8-5.5,75.7-10.5,113.5-14.3c31.5-3.2,63.1-5.5,94.7-6.4 c10.5-0.3,18.9-8.9,18.9-19.3c0-25.2,0-50.5,0-75.7C823.8,916.5,815.7,908.3,805.5,908.2L805.5,908.2L805.5,908.2z"></path><path style="fill:#87E191;" d="M467,270.1c3.7,0,7,1.3,9.5,3.8c2.5,2.5,3.8,5.9,3.8,9.7v75.7c0,11,8.2,19.4,19.1,19.4 c1.1,0,2.1-0.1,3.2-0.2c12.6-1.9,25.4-3.8,37.8-5.6c12.4-1.9,25.2-3.8,37.8-5.6c0.8-0.1,1.6-0.2,2.3-0.2c7.6,0,13.1,5.6,13.1,13.4 v189.2c0,11.1,8.3,19.4,19.3,19.4c1,0,2-0.1,3.1-0.2c28.3-4,53-7.1,75.6-9.6c0.6-0.1,1.2-0.1,1.8-0.1c7.9,0,13.8,6,13.8,14v75.7 c0,8.9-7.3,16.9-16.2,17.9c-22.7,2.5-47.5,5.7-75.8,9.6c-11.9,1.7-21.5,12.7-21.5,24.6v75.7c0,9-7.3,17.4-16.4,18.7 c-12.6,1.9-25.4,3.8-37.8,5.6s-25.2,3.8-37.8,5.6c-0.8,0.1-1.6,0.2-2.3,0.2c-7.6,0-13.1-5.6-13.1-13.4v-75.7 c0-11.1-8.3-19.4-19.3-19.4c-1,0-2,0.1-3.1,0.2c-28.3,4-53,7.1-75.6,9.6c-0.6,0.1-1.2,0.1-1.8,0.1c-7.9,0-13.8-6-13.8-14V524.9 c0-5.6-2.1-10.7-5.9-14.4c-3.8-3.7-8.9-5.8-14.3-5.8c-0.6,0-1.3,0-2,0.1c-26.8,2.4-51.5,3.9-75.5,4.6c-0.2,0-0.3,0-0.5,0 c-8.5,0-15.4-7-15.4-15.5v-75.7c0-8.7,7.2-16,16-16.3c24.1-0.7,48.9-2.2,75.9-4.6c11.9-1.1,21.7-11.7,21.7-23.7v-75.7 c0-8.9,7.3-16.9,16.2-17.9c22.7-2.5,47.5-5.7,75.8-9.6C465.5,270.1,466.3,270,467,270.1 M467,267c-0.9,0-1.8,0.1-2.7,0.2 c-25.2,3.5-50.5,6.8-75.7,9.6c-10.5,1.2-18.9,10.5-18.9,20.9c0,25.2,0,50.5,0,75.7c0,10.5-8.5,19.8-18.9,20.7 c-25.2,2.2-50.5,3.9-75.7,4.6c-10.5,0.3-18.9,8.9-18.9,19.3v75.7c0,10.3,8.2,18.5,18.4,18.5c0.2,0,0.4,0,0.6,0 c25.2-0.8,50.5-2.4,75.7-4.6c0.6,0,1.1-0.1,1.7-0.1c9.6,0,17.2,7.3,17.2,17.2c0,31.5,0,63.1,0,94.6c0,31.5,0,63.1,0,94.6 c0,9.7,7.4,17,16.8,17c0.7,0,1.4,0,2.1-0.1c25.2-2.8,50.5-6.1,75.7-9.6c0.9-0.1,1.8-0.2,2.7-0.2c9.2,0,16.3,6.9,16.3,16.4v75.7 c0,9.5,7,16.4,16.1,16.4c0.9,0,1.8-0.1,2.8-0.2c25.2-3.7,50.4-7.6,75.7-11.3c10.5-1.5,18.9-11.2,18.9-21.7v-75.7 c0-10.5,8.5-20.2,18.9-21.6c25.2-3.5,50.5-6.8,75.7-9.6c10.5-1.2,18.9-10.5,18.9-20.9c0-25.2,0-50.5,0-75.7c0-9.7-7.4-17-16.8-17 c-0.7,0-1.4,0-2.1,0.1c-25.2,2.8-50.5,6.1-75.7,9.6c-0.9,0.1-1.8,0.2-2.7,0.2c-9.2,0-16.3-6.9-16.3-16.4V380.2 c0-9.5-7-16.4-16.1-16.4c-0.9,0-1.8,0.1-2.8,0.2c-25.2,3.7-50.4,7.6-75.7,11.3c-0.9,0.1-1.9,0.2-2.8,0.2c-9.1,0-16.1-6.9-16.1-16.4 v-75.7C483.3,273.9,476.2,267.1,467,267L467,267L467,267z"></path><path style="fill:#87E191;" d="M159.7,171.3c0.5,0,1.1,0,1.6,0.1c24.3,2.3,49.8,3.6,75.9,3.8c8.8,0.1,15.9,7.2,15.9,15.9v75.7 c0,4.2-1.6,8.2-4.6,11.3s-6.9,4.7-11.1,4.7h-0.1c-25.9-0.2-51.3-1.5-75.4-3.8c-8.8-0.8-16.2-9.1-16.2-18v-75.7 C145.7,177.4,151.7,171.3,159.7,171.3 M159.7,168.3c-9.6,0-17.1,7.1-17.1,17V261c0,10.5,8.5,20,18.9,21c25.2,2.4,50.4,3.6,75.7,3.8 c0.1,0,0.1,0,0.1,0c10.4,0,18.8-8.6,18.8-19v-75.7c0-10.4-8.5-18.8-18.9-18.9c-25.2-0.2-50.4-1.4-75.7-3.8 C160.9,168.4,160.3,168.4,159.7,168.3L159.7,168.3L159.7,168.3z"></path><path style="fill:#87E191;" d="M43,264.2c1.4,0,2.8,0.2,4.2,0.6c24.5,6.5,50.1,11.7,76,15.5c9,1.3,16.4,9.6,16.4,18.5v302.8 c0,12.1,9.7,22.8,21.6,24c24.3,2.3,49.8,3.6,75.9,3.8c8.8,0.1,15.9,7.2,15.9,15.9v75.7c0,8.8-7.1,16-15.8,16h-0.1 c-25.9-0.2-51.3-1.5-75.4-3.8c-0.7-0.1-1.4-0.1-2.1-0.1c-11.4,0-20.1,8.6-20.1,20v75.7c0,7.8-5.7,13.6-13.2,13.6 c-0.7,0-1.5-0.1-2.3-0.2c-25.7-3.8-51.1-9-75.4-15.4c-9-2.4-16.7-12.2-16.7-21.3V275.5c0-3.4,1.1-6.3,3.1-8.3 C37.2,265.2,39.9,264.2,43,264.2L43,264.2 M43,261.2c-8,0-13.9,5.6-13.9,14.3v529.8c0,10.5,8.5,21.5,18.9,24.2 c25.2,6.7,50.5,11.8,75.7,15.5c0.9,0.1,1.8,0.2,2.7,0.2c9.2,0,16.2-7.1,16.2-16.6v-75.7c0-9.8,7.5-17,17.1-17c0.6,0,1.2,0,1.9,0.1 c25.2,2.4,50.4,3.6,75.7,3.8c0.1,0,0.1,0,0.1,0c10.4,0,18.8-8.6,18.8-19v-75.7c0-10.5-8.5-18.8-18.9-18.9 c-25.2-0.2-50.4-1.3-75.7-3.8c-10.4-1-18.9-10.5-18.9-21V298.8c0-10.5-8.5-19.9-18.9-21.5c-25.2-3.7-50.5-8.8-75.7-15.5 C46.3,261.4,44.6,261.2,43,261.2L43,261.2L43,261.2z"></path><path style="fill:#87E191;" d="M159.7,852.5c0.5,0,1.1,0,1.6,0.1c24.3,2.3,49.8,3.6,75.9,3.8c8.8,0.1,15.9,7.2,15.9,15.9V948 c0,4.2-1.6,8.2-4.6,11.3s-6.9,4.7-11.1,4.7h-0.1c-25.9-0.2-51.3-1.5-75.4-3.8c-8.8-0.8-16.2-9.1-16.2-18v-75.7 C145.7,858.5,151.7,852.5,159.7,852.5 M159.7,849.5c-9.6,0-17.1,7.1-17.1,17v75.7c0,10.5,8.5,20,18.9,21c25.2,2.4,50.4,3.6,75.7,3.8 c0.1,0,0.1,0,0.1,0c10.4,0,18.8-8.6,18.8-19v-75.7c0-10.5-8.5-18.8-18.9-18.9c-25.2-0.2-50.4-1.3-75.7-3.8 C160.9,849.5,160.3,849.5,159.7,849.5L159.7,849.5L159.7,849.5z"></path></svg>