<svg xmlns="http://www.w3.org/2000/svg" width="161" height="161" viewBox="0 0 161 161" fill="none"><g clip-path="url(#clip0_835_335)"><path d="M143.105 53.6715V71.5524V89.4333V107.329V125.224V143.105H161V125.224V107.329V89.4333V71.5524V53.6715H143.105Z" fill="#1D1D1B"></path><path d="M143.105 17.8809V0H125.224H107.328V17.8809H125.224H143.105Z" fill="#1D1D1B"></path><path d="M143.105 53.6714V35.7761H125.224H107.328V53.6714H125.224H143.105Z" fill="#1D1D1B"></path><path d="M125.224 125.224V107.329V89.4333H107.329V71.5524V53.6715H89.4476V71.5524V89.4333V107.329V125.224V143.105H107.329V125.224H125.224Z" fill="#1D1D1B"></path><path d="M107.328 143.105V161H125.224H143.105V143.105H125.224H107.328Z" fill="#1D1D1B"></path><path d="M53.6715 71.5524V89.4333V107.329V125.224V143.105H71.5524V125.224V107.329V89.4333V71.5524V53.6715H53.6715V71.5524Z" fill="#1D1D1B"></path><path d="M53.6714 17.8809V0H35.7762H17.8953V17.8809H35.7762H53.6714Z" fill="#1D1D1B"></path><path d="M53.6714 53.6714V35.7761H35.7762H17.8953V53.6714H35.7762H53.6714Z" fill="#1D1D1B"></path><path d="M35.7762 125.224V107.329V89.4333H17.8953V71.5524V53.6715H0V71.5524V89.4333V107.329V125.224V143.105H17.8953V125.224H35.7762Z" fill="#1D1D1B"></path><path d="M17.8953 143.105V161H35.7762H53.6714V143.105H35.7762H17.8953Z" fill="#1D1D1B"></path></g><defs><clipPath id="clip0_835_335"><rect width="161" height="161" fill="white"></rect></clipPath></defs></svg>