<svg xmlns="http://www.w3.org/2000/svg" width="161" height="161" viewBox="0 0 161 161" fill="none"><g clip-path="url(#clip0_480_18395)"><path d="M143.105 53.6714V71.5523V89.4332V107.328V125.224V143.105H161V125.224V107.328V89.4332V71.5523V53.6714H143.105Z" fill="#1D1D1B"></path><path d="M143.105 17.8809V0H125.224H107.329V17.8809H125.224H143.105Z" fill="#1D1D1B"></path><path d="M143.105 53.6717V35.7764H125.224H107.329V53.6717H125.224H143.105Z" fill="#1D1D1B"></path><path d="M107.329 89.4332V71.5523V53.6714H89.4478V71.5523V89.4332V107.328V125.224V143.105H107.329V125.224V89.4332Z" fill="#1D1D1B"></path><path d="M107 125V161H125.507H144V125H125.507H107Z" fill="#1D1D1B"></path><path d="M53.6714 71.5523V89.4332V107.328V125.224V143.105H71.5523V125.224V107.328V89.4332V71.5523V53.6714H53.6714V71.5523Z" fill="#1D1D1B"></path><path d="M53.6714 17.8809V0H35.7762H17.8953V17.8809H35.7762H53.6714Z" fill="#1D1D1B"></path><path d="M114 143L136 143L136 124.993L136 107L114 107L114 124.993L114 143Z" fill="#1D1D1B"></path><path d="M25 143L47 143L47 124.993L47 107L25 107L25 124.993L25 143Z" fill="#1D1D1B"></path><path d="M53.6714 53.6717V35.7764H35.7762H17.8953V53.6717H35.7762H53.6714Z" fill="#1D1D1B"></path><path d="M17.8953 100V89.4332V71.5523V53.6714H0V71.5523V89.4332V107.328V125.224V143.105H17.8953V125.224V100Z" fill="#1D1D1B"></path><path d="M17.8953 143.104V161H35.7762H53.6714V143.104H35.7762H17.8953Z" fill="#1D1D1B"></path><path d="M17.8953 125.209V143.104H35.7762H53.6714V125.209H35.7762H17.8953Z" fill="#1D1D1B"></path></g><defs><clipPath id="clip0_480_18395"><rect width="161" height="161" fill="white"></rect></clipPath></defs></svg>