<svg xmlns="http://www.w3.org/2000/svg" width="325" height="344" viewBox="0 0 325 344" fill="none"><g clip-path="url(#clip0_752_3127)"><path d="M295.954 74.1872C292.048 73.5821 288.884 76.3977 288.884 80.3369V247.387C288.884 251.326 292.048 254.903 295.954 255.508C304.663 256.863 309.022 257.744 317.731 260.04C321.637 261.07 324.801 258.843 324.801 254.903V87.8532C324.801 83.9139 321.637 79.7483 317.731 78.7192C309.022 76.4224 304.663 75.5415 295.954 74.1872" stroke="#87E191" stroke-miterlimit="10"></path><path d="M281.814 72.4338C285.72 72.8001 288.884 70.0052 288.884 66.0659V44.0686C288.884 40.1252 285.72 36.5317 281.814 36.1654C273.101 35.3463 268.743 35.1446 260.03 35.0375C256.124 34.9881 252.96 38.2276 252.96 42.1669V64.1642C252.96 68.1035 256.124 71.2565 260.03 71.3059C268.743 71.4171 273.101 71.6188 281.814 72.4338Z" stroke="#87E191" stroke-miterlimit="10"></path><path d="M252.96 281.75C252.96 285.689 256.124 288.842 260.03 288.892C268.743 289.003 273.101 289.204 281.814 290.019C285.72 290.386 288.884 287.595 288.884 283.652V261.658C288.884 257.715 285.72 254.121 281.814 253.755C273.101 252.936 268.743 252.734 260.03 252.623C256.124 252.574 252.96 255.809 252.96 259.753V281.746V281.75Z" stroke="#87E191" stroke-miterlimit="10"></path><path d="M217.047 138.796C217.047 142.735 220.211 145.609 224.117 145.275C232.826 144.53 237.184 144.242 245.893 143.97C249.799 143.847 252.963 140.628 252.963 136.685V114.7C252.963 110.756 249.799 107.591 245.893 107.71C237.18 107.986 232.826 108.27 224.117 109.015C220.211 109.349 217.047 112.868 217.047 116.807V138.792V138.796Z" stroke="#87E191" stroke-miterlimit="10"></path><path d="M217.047 211.337C217.047 215.276 220.211 218.15 224.117 217.816C232.826 217.067 237.184 216.783 245.893 216.511C249.799 216.388 252.963 213.165 252.963 209.226V187.22C252.963 183.277 249.799 180.111 245.893 180.231C237.18 180.502 232.826 180.79 224.117 181.535C220.211 181.869 217.047 185.388 217.047 189.328V211.333V211.337Z" stroke="#87E191" stroke-miterlimit="10"></path><path d="M181.115 295.536C166.747 297.618 159.562 298.8 145.19 300.895C130.826 302.99 123.642 304.015 109.274 305.485C97.7354 306.666 91.9661 307.131 80.4234 307.539C76.5215 307.674 73.3535 310.91 73.3535 314.849V336.834C73.3535 340.777 76.5174 343.93 80.4234 343.795C91.962 343.387 97.7313 342.922 109.274 341.745C123.642 340.275 130.822 339.25 145.19 337.155C159.558 335.06 166.742 333.883 181.115 331.796C195.487 329.709 202.675 328.696 217.047 327.26C228.586 326.103 234.355 325.658 245.894 325.296C249.8 325.173 252.964 321.954 252.964 318.014V296.029C252.964 292.09 249.8 288.921 245.894 289.04C234.355 289.402 228.586 289.851 217.047 291.004C202.675 292.44 195.487 293.453 181.115 295.54" stroke="#87E191" stroke-miterlimit="10"></path><path d="M144.196 228.707C132.657 230.255 126.888 231.004 115.349 232.177C111.443 232.573 108.247 236.051 108.202 239.998C108.104 248.803 108.055 253.203 107.961 262.008C107.921 265.951 111.048 268.878 114.954 268.479C126.492 267.314 132.262 266.569 143.8 265.025C158.168 263.103 165.352 262.004 179.721 260.069C191.263 258.513 197.037 257.76 208.583 256.566C212.489 256.163 215.686 252.676 215.731 248.733C215.829 239.928 215.873 235.528 215.971 226.723C216.016 222.776 212.885 219.862 208.979 220.265C197.436 221.451 191.663 222.204 180.116 223.756C165.748 225.69 158.564 226.785 144.196 228.716" stroke="#87E191" stroke-miterlimit="10"></path><path d="M146.185 47.0938C160.553 45.1509 167.737 44.0518 182.105 42.1378C196.477 40.2237 203.662 39.2976 218.034 38.0503C229.572 37.0501 235.342 36.6796 246.88 36.4779C250.782 36.4121 253.983 33.2343 254.028 29.295C254.125 20.4986 254.17 16.1024 254.268 7.30598C254.313 3.36261 251.182 0.14369 247.28 0.20955C235.741 0.398898 229.972 0.761129 218.433 1.75315C204.061 2.98803 196.877 3.91007 182.505 5.82413C168.137 7.73407 160.953 8.829 146.584 10.776C132.22 12.723 125.036 13.678 110.672 15.024C99.1336 16.1065 93.3643 16.5264 81.8258 16.8516C77.9198 16.9586 74.7233 20.1734 74.6784 24.1127C74.5806 32.9091 74.5357 37.3094 74.4379 46.1058C74.393 50.0451 77.5243 53.2311 81.4262 53.1241C92.9648 52.8154 98.7341 52.3996 110.277 51.3253C124.641 49.9916 131.825 49.0407 146.189 47.0938" stroke="#87E191" stroke-miterlimit="10"></path><path d="M109.396 131.082C109.441 127.139 106.309 124.237 102.407 124.542C93.6945 125.217 89.34 125.468 80.6269 125.682C76.725 125.781 73.5244 128.979 73.4796 132.922C73.3817 141.719 73.3369 146.115 73.239 154.911C73.1942 158.855 76.3255 162.049 80.2274 161.954C88.9404 161.749 93.2949 161.502 102.008 160.831C105.914 160.53 109.11 157.035 109.155 153.092C109.253 144.287 109.298 139.887 109.396 131.082" stroke="#87E191" stroke-miterlimit="10"></path><path d="M79.8318 198.227C75.9258 198.313 72.7292 201.508 72.6844 205.447C72.5865 214.252 72.5417 218.652 72.4438 227.452C72.399 231.396 75.5303 234.594 79.4363 234.512C88.1493 234.326 92.5038 234.088 101.213 233.433C105.119 233.141 108.315 229.65 108.36 225.707C108.458 216.898 108.503 212.49 108.601 203.677C108.646 199.733 105.514 196.827 101.608 197.124C92.8993 197.786 88.5407 198.029 79.8318 198.227" stroke="#87E191" stroke-miterlimit="10"></path><path d="M74.2747 60.3774C74.3196 56.434 71.1883 53.2727 67.2864 53.2068C58.5692 53.0669 54.2107 52.8528 45.4895 52.0172C41.5835 51.6427 38.387 54.4294 38.3421 58.3645C38.2443 67.1527 38.1994 71.5489 38.1016 80.333C38.0567 84.2681 41.188 87.8699 45.0899 88.2486C53.807 89.0965 58.1656 89.3188 66.8868 89.4711C70.7928 89.537 73.9893 86.318 74.0342 82.3747C74.132 73.5741 74.1769 69.1738 74.2747 60.3732" stroke="#87E191" stroke-miterlimit="10"></path><path d="M44.4909 270.442C40.585 270.097 37.421 272.912 37.421 276.851V298.845C37.421 302.788 40.585 306.365 44.4909 306.711C53.2081 307.485 57.5707 307.666 66.2878 307.736C70.1938 307.769 73.3577 304.521 73.3577 300.578V278.584C73.3577 274.645 70.1938 271.5 66.2878 271.472C57.5707 271.397 53.2081 271.22 44.4909 270.447" stroke="#87E191" stroke-miterlimit="10"></path><path d="M36.8334 196.099C36.9924 181.614 37.074 174.369 37.2289 159.884C37.3879 145.399 37.4695 138.158 37.6244 123.673C37.7508 112.037 37.816 106.22 37.9424 94.5838C37.9873 90.6486 34.856 87.0675 30.9541 86.4541C22.2451 85.0793 17.8865 84.1861 9.17758 81.8851C5.27567 80.8519 2.07505 83.0665 2.0302 86.9934C1.89973 98.6053 1.83857 104.413 1.71218 116.025C1.55316 130.482 1.47162 137.71 1.31668 152.166C1.15767 166.622 1.07613 173.855 0.921193 188.311C0.762181 202.776 0.680637 210.004 0.521625 224.468C0.395231 236.076 0.329995 241.884 0.203601 253.492C0.158751 257.423 3.29006 261.609 7.19197 262.684C15.9009 265.079 20.2595 266.014 28.9685 267.467C32.8704 268.117 36.071 265.343 36.1158 261.408C36.2422 249.775 36.3075 243.959 36.4339 232.326C36.5929 217.837 36.6744 210.588 36.8293 196.099" stroke="#87E191" stroke-miterlimit="10"></path></g><defs><clipPath id="clip0_752_3127"><rect width="325" height="344" fill="white"></rect></clipPath></defs></svg>