<svg xmlns="http://www.w3.org/2000/svg" width="623" height="804" viewBox="0 0 623 804" fill="none"><path d="M270.143 159.136H170.345C153.079 158.626 140.039 174.102 138.562 190.27C120.904 384.684 -85.8799 574.257 41.5811 769.4C52.7509 786.227 76.5115 800.297 96.925 800.534H196.723C217.766 801.461 210.168 780.166 203.754 769.4C77.0102 575.396 280.889 386.346 300.474 193.381C302.132 177.195 315.333 161.743 332.618 162.248H429.293C445.512 162.515 461.612 176.112 459.518 193.381C439.79 387.628 234.116 577.898 364.937 772.511C376.399 789.301 400.341 803.403 420.904 803.645H520.702C541.907 804.61 533.567 783.01 527.11 772.511C388.585 566.454 625.412 371.025 622.651 162.241C622.508 157.257 622.37 154.767 621.972 149.789C617.777 106.327 602.668 67.6384 578.327 31.47C566.721 15.0225 543.048 0.217835 522.373 0.342296H263.524C242.319 -0.622277 250.659 20.9779 257.116 31.4762C277.205 61.3033 291.149 92.6489 297.98 127.996C301.633 145.035 286.225 158.887 270.137 159.13L270.143 159.136Z" stroke="#87E191" stroke-miterlimit="10"></path></svg>